<?xml version="1.0" standalone="no"?>
<svg xmlns:xlink="http://www.w3.org/1999/xlink" id="wave" style="transform:rotate(180deg); transition: 0.3s" viewBox="0 0 1440 110" version="1.1" xmlns="http://www.w3.org/2000/svg"><defs><linearGradient id="sw-gradient-0" x1="0" x2="0" y1="1" y2="0"><stop stop-color="rgba(243, 62, 157.418, 1)" offset="0%"/><stop stop-color="rgba(232.552, 232.552, 232.552, 1)" offset="100%"/></linearGradient></defs><path style="transform:translate(0, 0px); opacity:1" fill="url(#sw-gradient-0)" d="M0,88L34.3,78.8C68.6,70,137,51,206,36.7C274.3,22,343,11,411,22C480,33,549,66,617,78.8C685.7,92,754,84,823,82.5C891.4,81,960,84,1029,88C1097.1,92,1166,95,1234,84.3C1302.9,73,1371,48,1440,31.2C1508.6,15,1577,7,1646,18.3C1714.3,29,1783,59,1851,67.8C1920,77,1989,66,2057,67.8C2125.7,70,2194,84,2263,86.2C2331.4,88,2400,77,2469,77C2537.1,77,2606,88,2674,89.8C2742.9,92,2811,84,2880,73.3C2948.6,62,3017,48,3086,49.5C3154.3,51,3223,70,3291,78.8C3360,88,3429,88,3497,77C3565.7,66,3634,44,3703,40.3C3771.4,37,3840,51,3909,53.2C3977.1,55,4046,44,4114,34.8C4182.9,26,4251,18,4320,18.3C4388.6,18,4457,26,4526,31.2C4594.3,37,4663,40,4731,38.5C4800,37,4869,29,4903,25.7L4937.1,22L4937.1,110L4902.9,110C4868.6,110,4800,110,4731,110C4662.9,110,4594,110,4526,110C4457.1,110,4389,110,4320,110C4251.4,110,4183,110,4114,110C4045.7,110,3977,110,3909,110C3840,110,3771,110,3703,110C3634.3,110,3566,110,3497,110C3428.6,110,3360,110,3291,110C3222.9,110,3154,110,3086,110C3017.1,110,2949,110,2880,110C2811.4,110,2743,110,2674,110C2605.7,110,2537,110,2469,110C2400,110,2331,110,2263,110C2194.3,110,2126,110,2057,110C1988.6,110,1920,110,1851,110C1782.9,110,1714,110,1646,110C1577.1,110,1509,110,1440,110C1371.4,110,1303,110,1234,110C1165.7,110,1097,110,1029,110C960,110,891,110,823,110C754.3,110,686,110,617,110C548.6,110,480,110,411,110C342.9,110,274,110,206,110C137.1,110,69,110,34,110L0,110Z"/></svg>