<?xml version="1.0" standalone="no"?>
<svg xmlns:xlink="http://www.w3.org/1999/xlink" id="wave" style="transform:rotate(180deg); transition: 0.3s" viewBox="0 0 1440 170" version="1.1" xmlns="http://www.w3.org/2000/svg"><defs><linearGradient id="sw-gradient-0" x1="0" x2="0" y1="1" y2="0"><stop stop-color="rgba(253, 235, 242, 1)" offset="0%"/><stop stop-color="rgba(246, 57, 144, 1)" offset="100%"/></linearGradient></defs><path style="transform:translate(0, 0px); opacity:1" fill="url(#sw-gradient-0)" d="M0,68L48,65.2C96,62,192,57,288,68C384,79,480,108,576,110.5C672,113,768,91,864,76.5C960,62,1056,57,1152,70.8C1248,85,1344,119,1440,121.8C1536,125,1632,96,1728,90.7C1824,85,1920,102,2016,93.5C2112,85,2208,51,2304,53.8C2400,57,2496,96,2592,119C2688,142,2784,147,2880,130.3C2976,113,3072,74,3168,59.5C3264,45,3360,57,3456,70.8C3552,85,3648,102,3744,93.5C3840,85,3936,51,4032,39.7C4128,28,4224,40,4320,39.7C4416,40,4512,28,4608,36.8C4704,45,4800,74,4896,96.3C4992,119,5088,136,5184,127.5C5280,119,5376,85,5472,76.5C5568,68,5664,85,5760,82.2C5856,79,5952,57,6048,59.5C6144,62,6240,91,6336,104.8C6432,119,6528,119,6624,110.5C6720,102,6816,85,6864,76.5L6912,68L6912,170L6864,170C6816,170,6720,170,6624,170C6528,170,6432,170,6336,170C6240,170,6144,170,6048,170C5952,170,5856,170,5760,170C5664,170,5568,170,5472,170C5376,170,5280,170,5184,170C5088,170,4992,170,4896,170C4800,170,4704,170,4608,170C4512,170,4416,170,4320,170C4224,170,4128,170,4032,170C3936,170,3840,170,3744,170C3648,170,3552,170,3456,170C3360,170,3264,170,3168,170C3072,170,2976,170,2880,170C2784,170,2688,170,2592,170C2496,170,2400,170,2304,170C2208,170,2112,170,2016,170C1920,170,1824,170,1728,170C1632,170,1536,170,1440,170C1344,170,1248,170,1152,170C1056,170,960,170,864,170C768,170,672,170,576,170C480,170,384,170,288,170C192,170,96,170,48,170L0,170Z"/></svg>